<?xml version="1.0" encoding="UTF-8"?>
<svg version="1.1" xmlns="http://www.w3.org/2000/svg" width="800" height="211">
<path d="M0 0 C1.08355774 -0.00426498 2.16711548 -0.00852997 3.2835083 -0.01292419 C5.04402275 -0.01224442 5.04402275 -0.01224442 6.84010315 -0.0115509 C8.08794586 -0.01490952 9.33578857 -0.01826813 10.6214447 -0.02172852 C14.03262632 -0.02958497 17.44374705 -0.03290512 20.8549335 -0.0335443 C22.98876183 -0.03425663 25.12258384 -0.03639437 27.2564106 -0.03904152 C34.70797758 -0.0482825 42.15952672 -0.05237785 49.61109924 -0.05158997 C56.54571616 -0.05098908 63.48025532 -0.06154627 70.41485256 -0.07733363 C76.37936849 -0.09042634 82.34385906 -0.09577316 88.30838925 -0.09513456 C91.8660357 -0.09488014 95.42361296 -0.09770055 98.98124504 -0.10831261 C102.94985344 -0.11982849 106.91835577 -0.11523616 110.88697815 -0.10920715 C112.05863022 -0.11482666 113.23028229 -0.12044617 114.43743896 -0.12623596 C121.39827852 -0.09936026 127.11588709 0.10113386 133.17823792 3.82121277 C137.71840916 8.48749989 138.80624307 13.50397279 138.83839417 19.80558777 C138.82099182 20.95800964 138.82099182 20.95800964 138.80323792 22.13371277 C138.81483948 22.90199402 138.82644104 23.67027527 138.83839417 24.46183777 C138.80462684 31.08023288 137.43278225 36.45596965 132.65179443 41.29618835 C127.39878775 45.62774976 121.44649711 44.94118832 114.93727112 44.84660339 C113.57328263 44.84818699 112.20929506 44.85238719 110.84532166 44.85899353 C107.1571337 44.86922244 103.47007029 44.84227582 99.78206277 44.80793953 C95.91758313 44.77777474 92.05311525 44.78021351 88.1885376 44.77861023 C81.70305788 44.77123664 75.21800299 44.74135784 68.73268127 44.69621277 C60.40977573 44.63839385 52.08721136 44.61775717 43.76412678 44.60884857 C36.60244256 44.60088768 29.44083236 44.57589101 22.27920127 44.54815483 C19.97928076 44.5399637 17.67936285 44.53410915 15.37943459 44.52856445 C11.76699225 44.51876944 8.154756 44.49834798 4.54241562 44.46968842 C2.58473765 44.45634453 0.62700144 44.45263805 -1.33071899 44.44920349 C-2.49566895 44.4377832 -3.6606189 44.42636292 -4.86087036 44.41459656 C-6.37925271 44.40567257 -6.37925271 44.40567257 -7.92830944 44.3965683 C-10.61651905 44.1292623 -12.27109392 43.50935739 -14.57176208 42.13371277 C-14.57176208 41.47371277 -14.57176208 40.81371277 -14.57176208 40.13371277 C-15.23176208 40.13371277 -15.89176208 40.13371277 -16.57176208 40.13371277 C-20.65817724 34.2311131 -21.19213427 29.72564039 -21.07176208 22.63371277 C-21.08723083 21.72234558 -21.10269958 20.81097839 -21.11863708 19.87199402 C-21.07626741 12.53144854 -19.49368518 8.05563586 -14.19676208 2.75871277 C-9.79624074 0.03458051 -5.07811612 0.00908554 0 0 Z M-0.57176208 12.13371277 C-0.57176208 12.79371277 -0.57176208 13.45371277 -0.57176208 14.13371277 C-1.23176208 14.13371277 -1.89176208 14.13371277 -2.57176208 14.13371277 C-5.68918342 18.80984476 -5.28725498 23.66272167 -4.57176208 29.13371277 C-2.668581 33.11447001 0.37188846 35.50386425 4.42823792 37.13371277 C9.2307444 37.68482007 13.82727061 37.74684919 18.36573792 36.00871277 C21.05365763 33.5651494 22.74845908 31.36884237 24.42823792 28.13371277 C24.42823792 25.82371277 24.42823792 23.51371277 24.42823792 21.13371277 C19.47823792 21.13371277 14.52823792 21.13371277 9.42823792 21.13371277 C9.42823792 22.78371277 9.42823792 24.43371277 9.42823792 26.13371277 C11.73823792 26.13371277 14.04823792 26.13371277 16.42823792 26.13371277 C16.42823792 27.45371277 16.42823792 28.77371277 16.42823792 30.13371277 C13.40051758 30.79994317 10.53385805 31.24796635 7.42823792 31.13371277 C4.36573792 29.07121277 4.36573792 29.07121277 2.42823792 26.13371277 C1.98316776 22.49897317 2.51093954 19.62997295 3.42823792 16.13371277 C5.21957769 16.07979284 7.01137691 16.04095705 8.80323792 16.00871277 C9.80097229 15.98550964 10.79870667 15.96230652 11.82667542 15.93840027 C14.42823792 16.13371277 14.42823792 16.13371277 16.42823792 18.13371277 C19.52750611 17.81172311 19.52750611 17.81172311 22.42823792 17.13371277 C22.74983396 14.17646462 22.74983396 14.17646462 21.11573792 12.57121277 C17.45022904 9.44874224 15.28946607 8.83892933 10.55323792 8.82121277 C9.52456604 8.80445496 8.49589417 8.78769714 7.43605042 8.77043152 C4.04200749 9.18036138 2.13936678 10.07785675 -0.57176208 12.13371277 Z M28.42823792 9.13371277 C28.34691149 12.17592342 28.28758418 15.21593657 28.24073792 18.25871277 C28.2156012 19.11465027 28.19046448 19.97058777 28.16456604 20.85246277 C28.10424983 26.07986803 28.57561799 29.566526 31.42823792 34.13371277 C32.08823792 34.13371277 32.74823792 34.13371277 33.42823792 34.13371277 C33.42823792 34.79371277 33.42823792 35.45371277 33.42823792 36.13371277 C36.31744486 37.09678175 38.35071672 37.32930637 41.36573792 37.38371277 C42.64771057 37.42238464 42.64771057 37.42238464 43.95558167 37.46183777 C46.92269868 37.06809712 48.28074739 36.18653433 50.42823792 34.13371277 C50.42823792 33.47371277 50.42823792 32.81371277 50.42823792 32.13371277 C51.08823792 32.13371277 51.74823792 32.13371277 52.42823792 32.13371277 C53.35832682 29.34344607 53.61522561 27.36841735 53.74464417 24.46574402 C53.7865387 23.57306824 53.82843323 22.68039246 53.87159729 21.76066589 C53.9109137 20.83189636 53.9502301 19.90312683 53.99073792 18.94621277 C54.03392151 18.00584167 54.0771051 17.06547058 54.12159729 16.09660339 C54.22762456 13.77578423 54.3296882 11.45485952 54.42823792 9.13371277 C52.11823792 9.13371277 49.80823792 9.13371277 47.42823792 9.13371277 C47.09823792 16.06371277 46.76823792 22.99371277 46.42823792 30.13371277 C39.42823792 31.13371277 39.42823792 31.13371277 36.42823792 30.13371277 C36.09823792 23.20371277 35.76823792 16.27371277 35.42823792 9.13371277 C33.11823792 9.13371277 30.80823792 9.13371277 28.42823792 9.13371277 Z M58.42823792 9.13371277 C58.42823792 18.37371277 58.42823792 27.61371277 58.42823792 37.13371277 C60.73823792 37.13371277 63.04823792 37.13371277 65.42823792 37.13371277 C65.42823792 27.89371277 65.42823792 18.65371277 65.42823792 9.13371277 C63.11823792 9.13371277 60.80823792 9.13371277 58.42823792 9.13371277 Z M70.42823792 9.13371277 C70.42823792 18.37371277 70.42823792 27.61371277 70.42823792 37.13371277 C82.7593301 37.63668564 82.7593301 37.63668564 93.17823792 33.57121277 C96.38828589 30.09366079 97.24329433 26.82665616 97.42823792 22.13371277 C96.68560293 17.3319025 95.20975759 14.76869751 91.42823792 11.69621277 C86.71259467 9.24014858 82.93576537 9.00863542 77.74073792 9.07121277 C75.32761292 9.09183777 72.91448792 9.11246277 70.42823792 9.13371277 Z M101.42823792 9.13371277 C101.42823792 18.37371277 101.42823792 27.61371277 101.42823792 37.13371277 C108.35823792 37.13371277 115.28823792 37.13371277 122.42823792 37.13371277 C122.75823792 35.48371277 123.08823792 33.83371277 123.42823792 32.13371277 C118.14823792 32.13371277 112.86823792 32.13371277 107.42823792 32.13371277 C107.42823792 29.82371277 107.42823792 27.51371277 107.42823792 25.13371277 C112.04823792 25.13371277 116.66823792 25.13371277 121.42823792 25.13371277 C121.42823792 23.81371277 121.42823792 22.49371277 121.42823792 21.13371277 C117.13823792 20.80371277 112.84823792 20.47371277 108.42823792 20.13371277 C108.09823792 18.48371277 107.76823792 16.83371277 107.42823792 15.13371277 C112.37823792 15.13371277 117.32823792 15.13371277 122.42823792 15.13371277 C122.42823792 13.15371277 122.42823792 11.17371277 122.42823792 9.13371277 C115.49823792 9.13371277 108.56823792 9.13371277 101.42823792 9.13371277 Z M77.42823792 15.13371277 C85.42823792 15.13371277 85.42823792 15.13371277 87.86573792 16.19621277 C90.22083497 19.11653312 90.36435209 21.42833472 90.42823792 25.13371277 C89.19999306 28.04271374 88.16631978 29.59923969 85.61573792 31.44621277 C83.42823792 32.13371277 83.42823792 32.13371277 77.42823792 32.13371277 C77.42823792 26.52371277 77.42823792 20.91371277 77.42823792 15.13371277 Z " fill="#F05425" transform="translate(354.57176208496094,127.86628723144531)"/>
<path d="M0 0 C6.620625 -0.04125 13.24125 -0.0825 20.0625 -0.125 C22.13926025 -0.14320801 24.21602051 -0.16141602 26.35571289 -0.18017578 C28.01969139 -0.18602234 29.68367277 -0.19111751 31.34765625 -0.1953125 C32.19710815 -0.20554443 33.04656006 -0.21577637 33.92175293 -0.22631836 C39.02670098 -0.22780214 43.16318769 0.35288795 48 2 C48.99 2.33 49.98 2.66 51 3 C51 3.66 51 4.32 51 5 C51.928125 5.4640625 51.928125 5.4640625 52.875 5.9375 C57.65161923 8.32580962 57.65161923 8.32580962 59 12 C59.21764232 14.71346267 59.32477502 17.28967583 59.3125 20 C59.32861328 20.7115625 59.34472656 21.423125 59.36132812 22.15625 C59.36434734 25.39285081 59.19587424 27.6488529 57.60546875 30.5 C56 32 56 32 54 32 C54 32.66 54 33.32 54 34 C52.35 34.66 50.7 35.32 49 36 C49 36.66 49 37.32 49 38 C50.65 38.33 52.3 38.66 54 39 C54 39.66 54 40.32 54 41 C54.598125 41.165 55.19625 41.33 55.8125 41.5 C59.21890124 43.83581799 60.09379051 47.13703402 61 51 C61.61554461 56.53043155 61.31027318 61.89814672 59 67 C50.74883076 75.04720775 41.71530797 76.16553071 30.6640625 76.09765625 C29.88377686 76.09664917 29.10349121 76.09564209 28.29956055 76.09460449 C25.40802524 76.08940541 22.51651101 76.07544433 19.625 76.0625 C13.14875 76.041875 6.6725 76.02125 0 76 C0 50.92 0 25.84 0 0 Z M20 16 C20 20.62 20 25.24 20 30 C23.3103125 30.0928125 23.3103125 30.0928125 26.6875 30.1875 C27.92886719 30.22230469 29.17023438 30.25710937 30.44921875 30.29296875 C34.49607131 29.95907002 37.11242948 28.88757052 40 26 C39.82504434 21.22601677 39.82504434 21.22601677 37.43359375 17.28515625 C34.06520933 15.5063465 30.95556477 15.67590546 27.25 15.8125 C26.55261719 15.82603516 25.85523438 15.83957031 25.13671875 15.85351562 C23.42414459 15.8887055 21.71197059 15.94250845 20 16 Z M20 45 C20 49.95 20 54.9 20 60 C22.58361518 60.05407567 25.16609255 60.093707 27.75 60.125 C28.47960937 60.14175781 29.20921875 60.15851563 29.9609375 60.17578125 C35.30434334 60.24714584 35.30434334 60.24714584 40 58 C41.50934217 54.98131566 41.17510672 52.32702771 41 49 C39.27773504 45.75150023 39.27773504 45.75150023 36 45 C33.26134713 44.92948886 30.54972412 44.90642235 27.8125 44.9375 C26.68811523 44.94426758 26.68811523 44.94426758 25.54101562 44.95117188 C23.69397617 44.96293646 21.84697787 44.98087135 20 45 Z " fill="#6B6B6B" transform="translate(264,44)"/>
<path d="M0 0 C46.07312253 0 46.07312253 0 56.23828125 8.9765625 C64.36039611 17.63403332 67.90927954 26.01309746 67.6875 37.875 C67.67360229 39.45293335 67.67360229 39.45293335 67.65942383 41.06274414 C67.41578455 48.98623702 66.3249011 55.76818144 61 62 C60.01 62.33 59.02 62.66 58 63 C57.88011719 63.61617187 57.76023437 64.23234375 57.63671875 64.8671875 C57 67 57 67 54.70703125 68.6328125 C35.89661933 78.32994793 23.76769194 76 0 76 C0 50.92 0 25.84 0 0 Z M19 17 C19 30.86 19 44.72 19 59 C32.21894678 59.42581741 32.21894678 59.42581741 43 54 C45.09976197 51.69762718 45.09976197 51.69762718 46 49 C46.391875 48.113125 46.78375 47.22625 47.1875 46.3125 C49.20656787 38.08091563 48.32580346 31.30447089 44 24 C40.98618727 20.05086608 37.7377238 18.43567388 33 17 C28.38 17 23.76 17 19 17 Z " fill="#6B6B6B" transform="translate(428,44)"/>
<path d="M0 0 C0.97710937 -0.01998047 1.95421875 -0.03996094 2.9609375 -0.06054688 C12.25154146 -0.05436961 20.3074695 2.66050223 27.625 8.4375 C27.625 9.0975 27.625 9.7575 27.625 10.4375 C28.285 10.4375 28.945 10.4375 29.625 10.4375 C37.11312249 17.92562249 39.58548509 28.18455301 39.8125 38.375 C39.72304521 47.43229728 36.83017666 55.96920305 31.625 63.4375 C30.965 63.4375 30.305 63.4375 29.625 63.4375 C29.625 64.0975 29.625 64.7575 29.625 65.4375 C28.965 65.4375 28.305 65.4375 27.625 65.4375 C27.13 66.9225 27.13 66.9225 26.625 68.4375 C18.92667466 75.45925043 8.43924026 78.13757239 -1.81640625 77.7109375 C-12.01707149 76.62079007 -19.77335069 73.51145508 -27.375 66.4375 C-27.705 65.4475 -28.035 64.4575 -28.375 63.4375 C-29.035 63.4375 -29.695 63.4375 -30.375 63.4375 C-31.59375 61.828125 -31.59375 61.828125 -32.875 59.6875 C-33.2978125 58.99140625 -33.720625 58.2953125 -34.15625 57.578125 C-39.31530288 48.51671161 -39.58589031 37.93227532 -37.6875 27.75 C-35.28623652 21.68966835 -32.66794596 15.41731732 -28.375 10.4375 C-27.715 10.4375 -27.055 10.4375 -26.375 10.4375 C-26.375 9.7775 -26.375 9.1175 -26.375 8.4375 C-18.02411199 1.65240349 -10.58231922 -0.07618162 0 0 Z M-13.375 22.4375 C-13.375 23.0975 -13.375 23.7575 -13.375 24.4375 C-14.035 24.4375 -14.695 24.4375 -15.375 24.4375 C-15.375 25.4275 -15.375 26.4175 -15.375 27.4375 C-16.035 27.4375 -16.695 27.4375 -17.375 27.4375 C-19.42970307 36.77849627 -19.89453416 43.85804532 -15.375 52.4375 C-14.715 52.4375 -14.055 52.4375 -13.375 52.4375 C-13.375 53.0975 -13.375 53.7575 -13.375 54.4375 C-6.59256132 58.33112221 -2.39545095 60.43290547 5.625 59.4375 C10.56515565 57.7295082 14.40517064 55.41457131 17.125 50.875 C19.96256557 44.37224557 20.8616653 37.32050932 19.09375 30.33984375 C17.11036789 25.43528472 14.39325113 21.71948207 10.125 18.625 C1.84295204 15.81501944 -6.84644952 16.10096571 -13.375 22.4375 Z " fill="#6B6B6B" transform="translate(88.375,43.5625)"/>
<path d="M0 0 C6.249375 -0.061875 12.49875 -0.12375 18.9375 -0.1875 C20.89163818 -0.21481201 22.84577637 -0.24212402 24.85913086 -0.27026367 C26.4360289 -0.27903871 28.01293383 -0.28668023 29.58984375 -0.29296875 C30.38588013 -0.30831665 31.1819165 -0.32366455 32.0020752 -0.33947754 C40.72529528 -0.34347718 47.91001723 1.92462722 54.26953125 7.9921875 C59.23162453 13.74955984 60.70424556 19.84508642 60.37890625 27.359375 C59.39849093 34.19196014 56.07545497 38.5888633 50.75 42.8125 C48.60664249 44.26692117 46.4774856 45.24924679 44 46 C44.66 46.99 45.32 47.98 46 49 C46 49.99 46 50.98 46 52 C46.66 52 47.32 52 48 52 C48.6509259 53.24735567 49.29551669 54.49801832 49.9375 55.75 C50.29714844 56.44609375 50.65679687 57.1421875 51.02734375 57.859375 C51.95558182 59.90224433 52.53166578 61.81115376 53 64 C53.66 64 54.32 64 55 64 C58 69.75 58 69.75 58 72 C58.66 72 59.32 72 60 72 C60 73.32 60 74.64 60 76 C56.54168414 76.02894547 53.08339928 76.04678 49.625 76.0625 C48.64015625 76.07087891 47.6553125 76.07925781 46.640625 76.08789062 C45.22910156 76.09272461 45.22910156 76.09272461 43.7890625 76.09765625 C42.48509521 76.10551147 42.48509521 76.10551147 41.15478516 76.11352539 C39 76 39 76 37 75 C35.89270545 73.07801205 34.86126017 71.11181397 33.875 69.125 C33.06675781 67.52011719 33.06675781 67.52011719 32.2421875 65.8828125 C31 63 31 63 31 60 C30.34 60 29.68 60 29 60 C29 59.01 29 58.02 29 57 C28.34 57 27.68 57 27 57 C26.525625 55.88625 26.05125 54.7725 25.5625 53.625 C24.74693537 51.73289006 23.92143645 49.84287291 23 48 C21.515 47.505 21.515 47.505 20 47 C20 56.57 20 66.14 20 76 C13.4 76 6.8 76 0 76 C0 50.92 0 25.84 0 0 Z M20 17 C20 22.61 20 28.22 20 34 C21.876875 34.04125 23.75375 34.0825 25.6875 34.125 C26.74324219 34.14820312 27.79898437 34.17140625 28.88671875 34.1953125 C32.74787597 33.95308181 35.54748269 32.90156247 38.8125 30.875 C40.4081983 28.35547637 40.4114056 25.96536631 40.49609375 23.03515625 C39.73851081 19.92727665 38.60767846 18.84625273 36 17 C33.07545478 16.70637096 30.64493292 16.61804057 27.75 16.75 C23.91375 16.87375 23.91375 16.87375 20 17 Z " fill="#6B6B6B" transform="translate(360,44)"/>
<path d="M0 0 C6.93 0 13.86 0 21 0 C23.73481404 6.48252217 26.00624586 13.02332791 28.06860352 19.74414062 C30.73881897 28.44403956 33.43966354 37.16915647 36.8125 45.625 C37.89683561 48.70679596 38.30211537 50.77743602 38 54 C38.66 54 39.32 54 40 54 C40.18949219 52.98679687 40.18949219 52.98679687 40.3828125 51.953125 C42.65420696 41.08493377 45.65347753 30.23417669 50.1796875 20.0859375 C51.71913747 16.17133616 52.84303715 12.11711936 54.03515625 8.0859375 C54.89183473 5.34595369 55.93381704 2.66545741 57 0 C63.6 0 70.2 0 77 0 C75.88088235 8.95294118 75.88088235 8.95294118 74.3125 12.5 C69.81623859 23.14818587 65.94437474 34.00069741 62.32958984 44.97509766 C60.35595807 50.96044862 58.32215243 56.92303828 56.25 62.875 C55.95617432 63.72545898 55.66234863 64.57591797 55.35961914 65.45214844 C54.94184204 66.64759277 54.94184204 66.64759277 54.515625 67.8671875 C54.14872559 68.92075439 54.14872559 68.92075439 53.77441406 69.99560547 C52.97981709 72.05223886 51.98601473 74.02797054 51 76 C43.08 76 35.16 76 27 76 C24.90985224 71.12298857 22.98301393 66.31155568 21.25 61.3125 C20.99613525 60.58627441 20.74227051 59.86004883 20.48071289 59.11181641 C19.93624214 57.5538737 19.39273004 55.99559568 18.85009766 54.43701172 C17.98158825 51.94721824 17.10681091 49.45970282 16.23046875 46.97265625 C12.40990183 36.11858378 8.63893773 25.24965218 5.1328125 14.2890625 C3.73954237 9.96561602 2.07750328 6.05607783 0 2 C0 1.34 0 0.68 0 0 Z " fill="#6B6B6B" transform="translate(128,44)"/>
<path d="M0 0 C15.51 0 31.02 0 47 0 C47 5.28 47 10.56 47 16 C33.635 16.495 33.635 16.495 20 17 C20 20.63 20 24.26 20 28 C27.92 28.33 35.84 28.66 44 29 C44 34.28 44 39.56 44 45 C36.08 45.33 28.16 45.66 20 46 C20 50.62 20 55.24 20 60 C28.91 60 37.82 60 47 60 C47 65.28 47 70.56 47 76 C31.49 76 15.98 76 0 76 C0 50.92 0 25.84 0 0 Z " fill="#6B6B6B" transform="translate(209,44)"/>
<path d="M0 0 C6.6 0 13.2 0 20 0 C20 20.13 20 40.26 20 61 C27.59 61 35.18 61 43 61 C43 65.95 43 70.9 43 76 C28.81 76 14.62 76 0 76 C0 50.92 0 25.84 0 0 Z " fill="#6B6B6B" transform="translate(5,44)"/>
<path d="M0 0 C4.62 0 9.24 0 14 0 C14.721875 1.8975 15.44375 3.795 16.1875 5.75 C18.67260915 12.21838409 21.29832151 18.61944015 24 25 C28.30482392 16.90464528 31.68881803 8.53397416 35 0 C39.62 0 44.24 0 49 0 C49 14.19 49 28.38 49 43 C45.04 43 41.08 43 37 43 C36.505 34.09 36.505 34.09 36 25 C34.02 30.94 32.04 36.88 30 43 C28.39125 43.04125 26.7825 43.0825 25.125 43.125 C23.76761719 43.15980469 23.76761719 43.15980469 22.3828125 43.1953125 C20 43 20 43 18 41 C17.22216797 39.12060547 17.22216797 39.12060547 16.4921875 36.8671875 C16.2535498 36.14128418 16.01491211 35.41538086 15.76904297 34.66748047 C15.47400879 33.74596191 15.17897461 32.82444336 14.875 31.875 C13.92625 28.94625 12.9775 26.0175 12 23 C11.67 29.6 11.34 36.2 11 43 C7.37 43 3.74 43 0 43 C0 28.81 0 14.62 0 0 Z " fill="#6B6B6B" transform="translate(5,129)"/>
<path d="M0 0 C6.27 0 12.54 0 19 0 C19 25.08 19 50.16 19 76 C12.73 76 6.46 76 0 76 C0 50.92 0 25.84 0 0 Z " fill="#6B6B6B" transform="translate(332,44)"/>
<path d="M0 0 C3.96 0 7.92 0 12 0 C12 0.66 12 1.32 12 2 C12.66 2 13.32 2 14 2 C15.47309111 4.10019014 16.81309635 6.17767729 18.125 8.375 C18.68380859 9.27992188 18.68380859 9.27992188 19.25390625 10.203125 C22 14.72965316 22 14.72965316 22 17 C22.66 17 23.32 17 24 17 C24.99 18.65 25.98 20.3 27 22 C27.33 14.74 27.66 7.48 28 0 C31.63 0 35.26 0 39 0 C39 14.19 39 28.38 39 43 C35.37 43 31.74 43 28 43 C25 39 25 39 25 37 C24.34 37 23.68 37 23 37 C23 36.01 23 35.02 23 34 C22.34 34 21.68 34 21 34 C18.95830515 31.09451118 18 29.59857954 18 26 C17.34 26 16.68 26 16 26 C15.01 24.35 14.02 22.7 13 21 C12.67 28.26 12.34 35.52 12 43 C8.04 43 4.08 43 0 43 C0 28.81 0 14.62 0 0 Z " fill="#6B6B6B" transform="translate(279,129)"/>
<path d="M0 0 C4.89554554 2.21058549 8.64695478 5.82131155 11.515625 10.34765625 C12.758047 13.79965509 12.64897627 17.20650292 12.640625 20.84765625 C12.64449219 22.53375 12.64449219 22.53375 12.6484375 24.25390625 C12.53828867 26.81972615 12.26833162 28.91032052 11.515625 31.34765625 C10.855625 31.34765625 10.195625 31.34765625 9.515625 31.34765625 C9.43183594 31.94191406 9.34804688 32.53617188 9.26171875 33.1484375 C8.29703789 35.99197324 7.01192091 36.82313706 4.578125 38.53515625 C3.86785156 39.04433594 3.15757812 39.55351562 2.42578125 40.078125 C-3.15052208 43.78425707 -11.00358981 43.38952203 -17.484375 42.34765625 C-22.82934483 40.07292124 -26.36089547 37.04989796 -29.546875 32.22265625 C-32.2897649 23.81112723 -32.34159235 16.76597829 -28.82421875 8.6171875 C-26.74051006 5.08764012 -24.05911687 3.22909934 -20.484375 1.34765625 C-19.89140625 0.98414063 -19.2984375 0.620625 -18.6875 0.24609375 C-13.14688368 -2.01337745 -5.70870996 -1.49898516 0 0 Z M-18.484375 14.34765625 C-20.0762681 19.12333555 -20.01499266 22.94151946 -18.234375 27.66015625 C-16.37889204 30.50964794 -15.71424091 31.45047128 -12.484375 32.34765625 C-8.39136052 32.79416692 -6.2327607 32.79668767 -2.671875 30.66015625 C0.43847834 27.37206844 1.32263009 24.85944975 1.890625 20.41015625 C1.40948065 16.48081076 -0.03953143 14.42117388 -2.484375 11.34765625 C-8.8811936 7.08311051 -14.00396851 8.50955083 -18.484375 14.34765625 Z " fill="#6B6B6B" transform="translate(262.484375,129.65234375)"/>
<path d="M0 0 C4.62 0 9.24 0 14 0 C17.0223036 7.77163784 19.95102306 15.55610808 22.73046875 23.41796875 C23.61891086 25.92474232 24.51590131 28.42684997 25.42578125 30.92578125 C25.77382812 31.8859314 25.77382812 31.8859314 26.12890625 32.86547852 C26.77829724 34.65571031 27.43009751 36.44506762 28.08203125 38.234375 C29 41 29 41 29 43 C24.71 43 20.42 43 16 43 C15.67 40.69 15.34 38.38 15 36 C10.05 36 5.1 36 0 36 C-0.66 38.31 -1.32 40.62 -2 43 C-5.96 43 -9.92 43 -14 43 C-13.28551461 40.61838204 -12.5708785 38.2368092 -11.85546875 35.85546875 C-11.31350263 34.04644027 -10.77411801 32.23663471 -10.23828125 30.42578125 C-7.18939868 20.14991779 -3.62299674 10.08563956 0 0 Z M7 13 C6.79503906 13.68707031 6.59007812 14.37414062 6.37890625 15.08203125 C6.10949219 15.98308594 5.84007812 16.88414062 5.5625 17.8125 C5.29566406 18.70582031 5.02882812 19.59914062 4.75390625 20.51953125 C4.19612127 22.35473055 3.60655425 24.18033726 3 26 C5.64 26 8.28 26 11 26 C10.343621 21.51474352 9.29925791 17.33085971 8 13 C7.67 13 7.34 13 7 13 Z " fill="#6B6B6B" transform="translate(148,129)"/>
<path d="M0 0 C3.63 0 7.26 0 11 0 C11.01458252 0.89831543 11.02916504 1.79663086 11.04418945 2.72216797 C11.10519697 6.0510659 11.17933628 9.37912883 11.26245117 12.70751953 C11.29573178 14.14881342 11.32375404 15.59023863 11.34643555 17.03173828 C11.3799262 19.10245797 11.432233 21.17197093 11.48828125 23.2421875 C11.51446533 24.4885498 11.54064941 25.73491211 11.56762695 27.01904297 C11.71031006 28.00275879 11.85299316 28.98647461 12 30 C15.24633524 32.1642235 16.24301443 32.37569856 20 32 C20.99 31.34 21.98 30.68 23 30 C23.51220541 26.89786275 23.51220541 26.89786275 23.51171875 23.2421875 C23.52966995 22.57913605 23.54762115 21.91608459 23.56611633 21.23294067 C23.62032924 19.11369197 23.65414771 16.99466975 23.6875 14.875 C23.72066367 13.43877048 23.75515245 12.0025709 23.79101562 10.56640625 C23.87605964 7.04448871 23.94281873 3.52249241 24 0 C27.96 0 31.92 0 36 0 C36.04969106 4.16258147 36.08585642 8.32500261 36.10986328 12.48779297 C36.11987856 13.90188609 36.13349474 15.31595873 36.15087891 16.72998047 C36.17532559 18.77055946 36.18652784 20.81086303 36.1953125 22.8515625 C36.21102295 24.68968506 36.21102295 24.68968506 36.22705078 26.56494141 C35.93428099 30.99426499 35.09506979 34.55237115 32.3984375 38.1171875 C26.37509934 43.34981718 20.42199999 44.15928068 12.703125 43.62890625 C8.39875747 42.89789025 6.13064125 41.84420838 3.1640625 38.703125 C0.13109708 34.26563197 -0.2737173 30.71649065 -0.1953125 25.390625 C-0.1924826 24.66381531 -0.18965271 23.93700562 -0.18673706 23.18817139 C-0.17557523 20.87527749 -0.15047851 18.56277612 -0.125 16.25 C-0.11496501 14.67839102 -0.10584006 13.10677596 -0.09765625 11.53515625 C-0.07564904 7.68995378 -0.04114715 3.84504336 0 0 Z " fill="#6B6B6B" transform="translate(60,129)"/>
<path d="M0 0 C11.22 0 22.44 0 34 0 C34 3.3 34 6.6 34 10 C30.37 10 26.74 10 23 10 C23 20.89 23 31.78 23 43 C19.04 43 15.08 43 11 43 C11 32.11 11 21.22 11 10 C7.37 10 3.74 10 0 10 C0 6.7 0 3.4 0 0 Z " fill="#6B6B6B" transform="translate(99,129)"/>
<path d="M0 0 C11.22 0 22.44 0 34 0 C34 3.3 34 6.6 34 10 C30.04 10 26.08 10 22 10 C22 20.89 22 31.78 22 43 C18.37 43 14.74 43 11 43 C11 32.11 11 21.22 11 10 C7.37 10 3.74 10 0 10 C0 6.7 0 3.4 0 0 Z " fill="#6B6B6B" transform="translate(178,129)"/>
<path d="M0 0 C3.96 0 7.92 0 12 0 C12 14.19 12 28.38 12 43 C8.04 43 4.08 43 0 43 C0 28.81 0 14.62 0 0 Z " fill="#6B6B6B" transform="translate(215,129)"/>
</svg>
