<?xml version="1.0" encoding="UTF-8"?>
<svg version="1.1" xmlns="http://www.w3.org/2000/svg" width="800" height="211">
<path d="M0 0 C0.78920334 -0.00708481 1.57840668 -0.01416962 2.39152527 -0.02146912 C3.24825836 -0.0189917 4.10499146 -0.01651428 4.98768616 -0.01396179 C5.89707443 -0.01907272 6.80646271 -0.02418365 7.7434082 -0.02944946 C10.74946168 -0.04334937 13.755286 -0.04238841 16.7613678 -0.04008484 C18.85117681 -0.04397148 20.94098504 -0.04830609 23.03079224 -0.05307007 C27.41130636 -0.06053309 31.79173989 -0.06024034 36.17225647 -0.05497742 C41.78575963 -0.04918202 47.39893293 -0.06611522 53.01238155 -0.08932209 C57.32836842 -0.10405367 61.64427573 -0.10493192 65.96028328 -0.10181236 C68.02993485 -0.10232584 70.09959085 -0.10756854 72.16921806 -0.11762428 C75.06335261 -0.12996035 77.95684317 -0.12321392 80.85096741 -0.11161804 C82.1330307 -0.12308365 82.1330307 -0.12308365 83.44099426 -0.13478088 C89.12384694 -0.08445242 92.2847496 1.04343525 96.73402405 4.69819641 C99.29771572 7.902811 99.14403546 11.73434145 99.17152405 15.69819641 C99.18570374 16.62503235 99.19988342 17.55186829 99.2144928 18.50679016 C98.88275326 22.47079645 97.77506379 25.1338435 95.49804688 28.37750244 C91.68708076 31.2322054 88.16663375 30.82769633 83.52137756 30.79414368 C82.56322144 30.80275925 81.60506531 30.81137482 80.61787415 30.82025146 C77.44928504 30.84296173 74.28157678 30.83616286 71.1129303 30.82710266 C68.91101823 30.8323362 66.70910842 30.83861168 64.50720215 30.84588623 C59.89121455 30.85629997 55.27553503 30.85171512 50.65956116 30.83711243 C44.74315537 30.81992835 38.82772104 30.84341087 32.91142368 30.87860203 C28.36377522 30.90055982 23.81635975 30.89913832 19.26867485 30.89083672 C17.08737562 30.89001622 14.90605944 30.89689833 12.72480965 30.91160774 C9.67462042 30.92902202 6.62618367 30.91453598 3.57606506 30.89179993 C2.22387123 30.90933823 2.22387123 30.90933823 0.84436035 30.92723083 C-3.63475822 30.85927855 -5.43611199 30.7216934 -9.05297852 27.84625244 C-12.19590199 23.70656047 -12.23153087 21.21511678 -12.32847595 16.01069641 C-12.36585876 14.70616516 -12.40324158 13.40163391 -12.4417572 12.05757141 C-11.94921521 7.66536205 -10.8491335 5.6148374 -8.01597595 2.26069641 C-5.2623849 0.58564573 -3.20566705 0.00963506 0 0 Z M-0.01597595 11.26069641 C-1.20126724 15.16518536 -1.44019609 17.22371386 0.10902405 21.01069641 C2.31408292 23.65676705 3.76905656 24.97470941 6.98402405 26.26069641 C11.05325671 26.46334744 14.05896576 25.8619843 17.48402405 23.63569641 C19.51566534 20.41893103 19.27071338 17.9876577 18.98402405 14.26069641 C15.68402405 14.26069641 12.38402405 14.26069641 8.98402405 14.26069641 C8.98402405 15.58069641 8.98402405 16.90069641 8.98402405 18.26069641 C10.96402405 18.26069641 12.94402405 18.26069641 14.98402405 18.26069641 C13.17290332 20.54842786 12.37681862 21.21279463 9.42152405 21.57319641 C6.98402405 21.26069641 6.98402405 21.26069641 4.98402405 19.26069641 C4.71410499 16.57230257 4.89665048 13.96927705 4.98402405 11.26069641 C9.45830329 11.17121083 13.58966194 11.4032599 17.98402405 12.26069641 C17.64814086 9.74157253 17.41047451 8.58873523 15.35902405 7.01069641 C8.69084015 4.90495413 4.63674536 6.0540797 -0.01597595 11.26069641 Z M22.98402405 6.26069641 C22.87576116 8.67856761 22.79662616 11.09157197 22.73402405 13.51069641 C22.70050842 14.19261047 22.6669928 14.87452454 22.63246155 15.57710266 C22.5653049 19.03567013 22.70411858 20.89007531 24.8160553 23.68647766 C27.63378854 25.73250739 29.50609333 26.18971823 32.98402405 26.26069641 C35.76061134 25.06171553 37.42647707 24.09317172 39.11683655 21.56929016 C40.28173884 18.46813135 40.17506193 15.81259045 40.10902405 12.51069641 C40.08195374 10.75499329 40.08195374 10.75499329 40.05433655 8.96382141 C40.03113342 8.07179016 40.0079303 7.17975891 39.98402405 6.26069641 C38.33402405 6.26069641 36.68402405 6.26069641 34.98402405 6.26069641 C34.65402405 10.88069641 34.32402405 15.50069641 33.98402405 20.26069641 C32.33402405 20.59069641 30.68402405 20.92069641 28.98402405 21.26069641 C27.04311579 19.31978816 27.5848297 15.78775739 27.42152405 13.19819641 C27.33773499 11.90784485 27.25394592 10.61749329 27.1676178 9.28804016 C27.10703186 8.28901672 27.04644592 7.28999329 26.98402405 6.26069641 C25.66402405 6.26069641 24.34402405 6.26069641 22.98402405 6.26069641 Z M43.98402405 6.26069641 C43.98402405 12.53069641 43.98402405 18.80069641 43.98402405 25.26069641 C45.30402405 25.26069641 46.62402405 25.26069641 47.98402405 25.26069641 C47.98402405 18.99069641 47.98402405 12.72069641 47.98402405 6.26069641 C46.66402405 6.26069641 45.34402405 6.26069641 43.98402405 6.26069641 Z M51.98402405 6.26069641 C51.98402405 12.53069641 51.98402405 18.80069641 51.98402405 25.26069641 C59.8410927 25.83583928 59.8410927 25.83583928 67.17152405 23.69819641 C69.58284339 20.45538764 69.98402405 18.28820507 69.98402405 14.26069641 C68.60606132 10.47129892 67.3154203 9.44913742 63.79652405 7.44819641 C59.37653967 5.86418487 59.37653967 5.86418487 51.98402405 6.26069641 Z M72.98402405 6.26069641 C72.98402405 12.53069641 72.98402405 18.80069641 72.98402405 25.26069641 C77.93402405 25.26069641 82.88402405 25.26069641 87.98402405 25.26069641 C87.98402405 24.27069641 87.98402405 23.28069641 87.98402405 22.26069641 C84.35402405 22.26069641 80.72402405 22.26069641 76.98402405 22.26069641 C76.98402405 20.94069641 76.98402405 19.62069641 76.98402405 18.26069641 C80.28402405 18.26069641 83.58402405 18.26069641 86.98402405 18.26069641 C86.98402405 16.94069641 86.98402405 15.62069641 86.98402405 14.26069641 C83.68402405 14.26069641 80.38402405 14.26069641 76.98402405 14.26069641 C76.98402405 12.94069641 76.98402405 11.62069641 76.98402405 10.26069641 C80.61402405 10.26069641 84.24402405 10.26069641 87.98402405 10.26069641 C87.98402405 8.94069641 87.98402405 7.62069641 87.98402405 6.26069641 C83.03402405 6.26069641 78.08402405 6.26069641 72.98402405 6.26069641 Z " fill="#F05425" transform="translate(241.01597595214844,119.73930358886719)"/>
<path d="M0 0 C7.239375 -0.0928125 7.239375 -0.0928125 14.625 -0.1875 C16.89238037 -0.22846802 16.89238037 -0.22846802 19.20556641 -0.27026367 C21.01033447 -0.28150269 21.01033447 -0.28150269 22.8515625 -0.29296875 C24.07697754 -0.3086792 25.30239258 -0.32438965 26.56494141 -0.34057617 C32.28562556 0.2266132 36.31900801 2.63734283 40 7 C41.24067966 10.72203899 41.54711324 14.13373308 41 18 C38 23.5 38 23.5 35 25 C35.42152344 25.39832031 35.84304687 25.79664062 36.27734375 26.20703125 C37.09912109 27.00173828 37.09912109 27.00173828 37.9375 27.8125 C38.48277344 28.33457031 39.02804688 28.85664062 39.58984375 29.39453125 C42.48975049 32.69608713 42.3383952 36.54299455 42.27734375 40.71484375 C41.83767775 44.33744393 40.41791641 46.32756608 38 49 C32.41080552 52.376805 27.93716298 53.1269871 21.484375 53.09765625 C20.35741211 53.09515869 19.23044922 53.09266113 18.06933594 53.09008789 C15.93126465 53.07643188 15.93126465 53.07643188 13.75 53.0625 C9.2125 53.041875 4.675 53.02125 0 53 C0 35.51 0 18.02 0 0 Z M13 11 C13 14.3 13 17.6 13 21 C15.35125 21.061875 15.35125 21.061875 17.75 21.125 C18.63171875 21.14820313 19.5134375 21.17140625 20.421875 21.1953125 C23.1135858 20.99139502 24.69904974 20.36551721 27 19 C27.2502157 16.08365871 27.2502157 16.08365871 27 13 C23.57905758 10.71937172 22.31812778 10.78074993 18.3125 10.875 C17.31863281 10.89304687 16.32476562 10.91109375 15.30078125 10.9296875 C14.54152344 10.95289062 13.78226563 10.97609375 13 11 Z M13 31 C13 34.3 13 37.6 13 41 C15.12472576 41.05386629 17.24983652 41.09273071 19.375 41.125 C21.15003906 41.15980469 21.15003906 41.15980469 22.9609375 41.1953125 C26.11153817 41.32866229 26.11153817 41.32866229 28 39 C28.41666667 36 28.41666667 36 28 33 C24.47320901 30.64880601 22.97120515 30.78556548 18.8125 30.875 C17.72582031 30.89304687 16.63914063 30.91109375 15.51953125 30.9296875 C14.68808594 30.95289062 13.85664063 30.97609375 13 31 Z " fill="#6B6B6B" transform="translate(181,62)"/>
<path d="M0 0 C4.24875 -0.0825 8.4975 -0.165 12.875 -0.25 C14.1935498 -0.28641602 15.51209961 -0.32283203 16.87060547 -0.36035156 C26.28998012 -0.4481845 33.85740645 0.85522933 40.9375 7.375 C46.31821773 12.95402428 47.5060729 18.40678804 47.4375 25.875 C47.4674707 27.02162109 47.4674707 27.02162109 47.49804688 28.19140625 C47.49242262 34.81677328 45.60651459 39.90742208 41.32421875 44.98828125 C28.66198832 55.23290205 16.71382186 53 0 53 C0 35.51 0 18.02 0 0 Z M14 12 C14 21.57 14 31.14 14 41 C23.27656795 41.09463169 23.27656795 41.09463169 30.875 36.5 C33.88154574 32.42822117 34.25871896 27.94702014 34 23 C33.19655461 18.96746933 31.46047281 16.44896099 28.5 13.5625 C23.96473672 11.25264013 23.96473672 11.25264013 14 12 Z " fill="#6B6B6B" transform="translate(294,62)"/>
<path d="M0 0 C1.13356934 -0.02211548 1.13356934 -0.02211548 2.29003906 -0.04467773 C8.95409752 0.07634203 14.08148799 2.11087907 19.14453125 6.45703125 C25.68071023 14.26545918 27.60503435 19.79927686 27.34375 30.0546875 C26.50044571 37.33629571 23.39981782 42.50608964 18.125 47.5 C10.6016471 53.4402265 3.41987759 54.47229569 -6.0625 53.5625 C-13.28658995 52.17995865 -19.14329486 47.59218087 -23.41796875 41.69140625 C-27.70179589 34.50014408 -28.22455803 26.40233398 -26.6015625 18.24609375 C-24.15716732 10.8985294 -18.89010365 4.9800874 -12.01953125 1.4453125 C-7.99167279 0.24280786 -4.18747623 0.05419991 0 0 Z M-10.0625 15.5625 C-13.58883066 20.54800196 -13.91117802 25.65905841 -13.0625 31.5625 C-11.8560286 34.93443289 -10.35211319 37.72886718 -7.26171875 39.7265625 C-2.99691777 41.34764138 1.45921923 41.10069101 5.9375 40.5625 C9.09994367 38.819929 10.38084666 37.46374826 12.25 34.4375 C13.58938278 28.83644475 13.63532238 23.58251216 11.75 18.125 C9.59684586 15.08088552 8.43565233 13.90221791 4.9375 12.5625 C-0.58313717 11.9076633 -5.74667654 11.63902413 -10.0625 15.5625 Z " fill="#6B6B6B" transform="translate(59.0625,61.4375)"/>
<path d="M0 0 C6.6825 -0.12375 6.6825 -0.12375 13.5 -0.25 C15.58344727 -0.30462402 15.58344727 -0.30462402 17.70898438 -0.36035156 C25.8238165 -0.43293085 31.80905119 -0.07744394 37.875 5.82421875 C40.92752073 10.8799562 42.13248635 15.11530455 41 21 C39.09326608 26.41128955 35.83948584 29.25029213 31 32 C34.76766572 40.01971287 34.76766572 40.01971287 39.375 47.5625 C41 50 41 50 41 53 C36.05 53 31.1 53 26 53 C24.32818524 50.04447033 22.66237821 47.08583038 21 44.125 C20.52304687 43.28324219 20.04609375 42.44148438 19.5546875 41.57421875 C19.10351562 40.76855469 18.65234375 39.96289062 18.1875 39.1328125 C17.76855469 38.38918457 17.34960938 37.64555664 16.91796875 36.87939453 C16 35 16 35 16 33 C15.01 33 14.02 33 13 33 C13 39.6 13 46.2 13 53 C8.71 53 4.42 53 0 53 C0 35.51 0 18.02 0 0 Z M13 11 C13 14.96 13 18.92 13 23 C14.753125 23.061875 16.50625 23.12375 18.3125 23.1875 C19.29863281 23.22230469 20.28476562 23.25710937 21.30078125 23.29296875 C24.00732083 23.22352978 24.00732083 23.22352978 25.8359375 21.6796875 C27.61641972 19.1105353 27.32276119 17.0339552 27 14 C23.86730295 10.86730295 21.02671577 10.94505603 16.75 10.9375 C15.5125 10.958125 14.275 10.97875 13 11 Z " fill="#6B6B6B" transform="translate(248,62)"/>
<path d="M0 0 C4.95 0 9.9 0 15 0 C18.96 11.55 22.92 23.1 27 35 C30.24256152 26.94747499 30.24256152 26.94747499 33.10546875 18.80859375 C33.44900391 17.76251953 33.79253906 16.71644531 34.14648438 15.63867188 C34.49001953 14.58228516 34.83355469 13.52589844 35.1875 12.4375 C35.88659181 10.2894738 36.58826867 8.14228659 37.29296875 5.99609375 C37.74965942 4.59121704 37.74965942 4.59121704 38.21557617 3.15795898 C39 1 39 1 40 0 C42.35313555 -0.07271741 44.70833668 -0.08370868 47.0625 -0.0625 C48.35285156 -0.05347656 49.64320313 -0.04445312 50.97265625 -0.03515625 C51.97167969 -0.02355469 52.97070312 -0.01195312 54 0 C52.12721817 7.21974009 49.96847672 14.2513167 47.42578125 21.26171875 C47.09708542 22.17838821 46.76838959 23.09505768 46.42973328 24.039505 C45.39456665 26.92359387 44.35364796 29.80556572 43.3125 32.6875 C42.60313148 34.66066923 41.89414378 36.63397541 41.18554688 38.60742188 C39.46142162 43.40653951 37.73213998 48.2037696 36 53 C30.39 53 24.78 53 19 53 C15.10652013 42.65630234 11.2545357 32.29956035 7.4753418 21.91357422 C6.67241492 19.70857331 5.86648076 17.50468461 5.06054688 15.30078125 C4.54408813 13.88287904 4.02780515 12.46491278 3.51171875 11.046875 C3.27321701 10.3958783 3.03471527 9.74488159 2.78898621 9.07415771 C1.6944434 6.05663318 0.78031052 3.1212421 0 0 Z " fill="#6B6B6B" transform="translate(86,62)"/>
<path d="M0 0 C10.89 0 21.78 0 33 0 C33 3.63 33 7.26 33 11 C26.73 11 20.46 11 14 11 C14 13.97 14 16.94 14 20 C19.61 20 25.22 20 31 20 C31 23.63 31 27.26 31 31 C25.39 31 19.78 31 14 31 C14 34.3 14 37.6 14 41 C20.27 41 26.54 41 33 41 C33 44.96 33 48.92 33 53 C22.11 53 11.22 53 0 53 C0 35.51 0 18.02 0 0 Z " fill="#6B6B6B" transform="translate(142,62)"/>
<path d="M0 0 C4.29 0 8.58 0 13 0 C13 13.86 13 27.72 13 42 C18.61 42 24.22 42 30 42 C30 45.63 30 49.26 30 53 C20.1 53 10.2 53 0 53 C0 35.51 0 18.02 0 0 Z " fill="#6B6B6B" transform="translate(1,62)"/>
<path d="M0 0 C2.97 0 5.94 0 9 0 C11.84986996 5.59795885 14.48212798 11.24486394 17 17 C19.31 11.39 21.62 5.78 24 0 C27.3 0 30.6 0 34 0 C34 9.57 34 19.14 34 29 C31.03 29 28.06 29 25 29 C24.67 26.03 24.34 23.06 24 20 C22.02 24.455 22.02 24.455 20 29 C17.69 29 15.38 29 13 29 C11.68 25.7 10.36 22.4 9 19 C8.67 22.3 8.34 25.6 8 29 C5.36 29 2.72 29 0 29 C0 19.43 0 9.86 0 0 Z M25 15 C26 17 26 17 26 17 Z " fill="#6B6B6B" transform="translate(1,121)"/>
<path d="M0 0 C4.29 0 8.58 0 13 0 C13 17.49 13 34.98 13 53 C8.71 53 4.42 53 0 53 C0 35.51 0 18.02 0 0 Z " fill="#6B6B6B" transform="translate(228,62)"/>
<path d="M0 0 C2.97 0 5.94 0 9 0 C11.28750857 2.46009152 12.54280063 4.13222487 14.0625 7 C14.64547852 8.00160156 14.64547852 8.00160156 15.24023438 9.0234375 C16.19016448 10.665292 17.09930564 12.33062794 18 14 C18.33 9.38 18.66 4.76 19 0 C21.97 0 24.94 0 28 0 C28 9.57 28 19.14 28 29 C19 29 19 29 16.15234375 26.15625 C15.38180483 24.95763391 14.64376787 23.73757685 13.9375 22.5 C13.54884766 21.87996094 13.16019531 21.25992188 12.75976562 20.62109375 C11.81097398 19.09834173 10.90136977 17.5512936 10 16 C9.67 20.29 9.34 24.58 9 29 C6.03 29 3.06 29 0 29 C0 19.43 0 9.86 0 0 Z " fill="#6B6B6B" transform="translate(191,121)"/>
<path d="M0 0 C3.92664413 2.99924577 5.79209654 6.38570838 7.1171875 11.0625 C7.51057046 16.34507116 6.5958406 19.97651296 3.1796875 24.0625 C0.60335349 26.79708549 -0.86601901 27.97683094 -4.7109375 28.30078125 C-13.90634881 28.5002251 -13.90634881 28.5002251 -18.5078125 26.4375 C-22.4694551 22.4758574 -24.03608293 19.06171683 -24.2578125 13.5 C-24.06818646 8.78305217 -22.90158255 6.00404934 -19.453125 2.6875 C-13.71082901 -2.34058008 -7.02579345 -3.49832039 0 0 Z M-14.8828125 8.0625 C-16.01994796 13.34120168 -16.01994796 13.34120168 -15.0703125 18.5 C-13.94986944 20.21293305 -13.94986944 20.21293305 -11.8828125 21.0625 C-7.26706364 21.56851955 -7.26706364 21.56851955 -3.18359375 19.828125 C-1.54355736 17.60200954 -1.4803726 16.30649015 -1.5078125 13.5625 C-1.50007813 12.7890625 -1.49234375 12.015625 -1.484375 11.21875 C-1.97859565 8.54414412 -2.70148272 7.65577544 -4.8828125 6.0625 C-9.24988158 5.67258312 -11.18795147 5.59925931 -14.8828125 8.0625 Z " fill="#6B6B6B" transform="translate(181.8828125,121.9375)"/>
<path d="M0 0 C2.97 0 5.94 0 9 0 C9.33 6.93 9.66 13.86 10 21 C11.98 21 13.96 21 16 21 C17.14654482 18.70691037 17.19729117 17.20090344 17.31640625 14.6484375 C17.35830078 13.79765625 17.40019531 12.946875 17.44335938 12.0703125 C17.48267578 11.18085938 17.52199219 10.29140625 17.5625 9.375 C17.60568359 8.4778125 17.64886719 7.580625 17.69335938 6.65625 C17.79956861 4.43765717 17.90161194 2.2189512 18 0 C20.64 0 23.28 0 26 0 C26.08745946 3.3956697 26.14054444 6.79104773 26.1875 10.1875 C26.21263672 11.14720703 26.23777344 12.10691406 26.26367188 13.09570312 C26.35729357 22.11459284 26.35729357 22.11459284 23 26 C19.84271855 29.10296263 17.42841803 29.43199443 13.0625 29.4375 C9.2578723 29.33091481 7.28731073 29.14940158 3.875 27.375 C-0.5108695 21.8195653 -0.25698643 15.86646096 -0.125 9.125 C-0.11597656 8.24585938 -0.10695312 7.36671875 -0.09765625 6.4609375 C-0.07424577 4.3071729 -0.0383801 2.15354986 0 0 Z " fill="#6B6B6B" transform="translate(38,121)"/>
<path d="M0 0 C2.97 0 5.94 0 9 0 C10.67482275 4.26767998 12.33845499 8.53963493 14 12.8125 C14.47695312 14.02744141 14.95390625 15.24238281 15.4453125 16.49414062 C15.89648438 17.65751953 16.34765625 18.82089844 16.8125 20.01953125 C17.23144531 21.09307861 17.65039062 22.16662598 18.08203125 23.27270508 C19 26 19 26 19 29 C16.36 29 13.72 29 11 29 C10.67 27.68 10.34 26.36 10 25 C6.37 25 2.74 25 -1 25 C-1.33 26.32 -1.66 27.64 -2 29 C-4.97 29 -7.94 29 -11 29 C-9.92152479 25.85242769 -8.83737091 22.70699914 -7.75 19.5625 C-7.44964844 18.68400391 -7.14929688 17.80550781 -6.83984375 16.90039062 C-4.83419819 11.11815714 -2.55704376 5.56100446 0 0 Z M4 10 C2.515 13.96 2.515 13.96 1 18 C2.98 18 4.96 18 7 18 C6.34 15.36 5.68 12.72 5 10 C4.67 10 4.34 10 4 10 Z " fill="#6B6B6B" transform="translate(101,121)"/>
<path d="M0 0 C7.92 0 15.84 0 24 0 C24 1.98 24 3.96 24 6 C21.36 6 18.72 6 16 6 C16 13.59 16 21.18 16 29 C13.36 29 10.72 29 8 29 C8 21.41 8 13.82 8 6 C5.36 6 2.72 6 0 6 C0 4.02 0 2.04 0 0 Z " fill="#6B6B6B" transform="translate(66,121)"/>
<path d="M0 0 C7.59 0 15.18 0 23 0 C23 1.98 23 3.96 23 6 C20.69 6 18.38 6 16 6 C16 13.59 16 21.18 16 29 C13.36 29 10.72 29 8 29 C8 21.41 8 13.82 8 6 C5.36 6 2.72 6 0 6 C0 4.02 0 2.04 0 0 Z " fill="#6B6B6B" transform="translate(121,121)"/>
<path d="M0 0 C2.64 0 5.28 0 8 0 C8 9.57 8 19.14 8 29 C5.36 29 2.72 29 0 29 C0 19.43 0 9.86 0 0 Z " fill="#6B6B6B" transform="translate(147,121)"/>
<path d="M0 0 C6 0 6 0 7.875 1.125 C9.54663625 3.91106042 9.46376624 5.81988862 9 9 C7.3125 10.875 7.3125 10.875 5 12 C3.35 12 1.7 12 0 12 C0 8.04 0 4.08 0 0 Z " fill="#F05425" transform="translate(297,130)"/>
</svg>
