<?xml version="1.0" encoding="UTF-8"?>
<svg version="1.1" xmlns="http://www.w3.org/2000/svg" width="800" height="211">
<path d="M0 0 C1.22391953 -0.00571014 2.44783905 -0.01142029 3.70884705 -0.01730347 C5.06742849 -0.01854881 6.42601004 -0.01967391 7.78459167 -0.02069092 C9.21370573 -0.02531966 10.64281855 -0.0303444 12.07192993 -0.03573608 C15.95632832 -0.04885691 19.84070942 -0.05530445 23.7251265 -0.05974674 C26.1522401 -0.06267806 28.57934897 -0.06678299 31.00646019 -0.07125092 C38.6011674 -0.08492519 46.19586381 -0.09459211 53.79058248 -0.09845281 C62.55598886 -0.10293314 71.32123926 -0.12048012 80.08659822 -0.1494534 C86.86292045 -0.17107411 93.63919882 -0.1811573 100.41555518 -0.18249393 C104.46229687 -0.1835417 108.50889194 -0.1894436 112.55559731 -0.20731354 C116.36331276 -0.22380096 120.17077146 -0.22594658 123.9785099 -0.21717453 C125.37408638 -0.2164045 126.76967671 -0.22074242 128.16521835 -0.23063278 C130.07437756 -0.24336697 131.98364008 -0.23567843 133.89282227 -0.22705078 C134.96004926 -0.22851734 136.02727625 -0.2299839 137.12684345 -0.2314949 C141.30289469 0.28452 144.66331688 1.7963783 147.78141785 4.64044189 C152.59895734 10.82751603 152.40831554 15.7625473 152.5118866 23.32794189 C152.56796082 24.85258057 152.56796082 24.85258057 152.62516785 26.40802002 C152.70291531 33.09862137 151.91494568 38.18318701 147.1368866 43.14044189 C143.26852615 45.90532782 140.60807151 46.5176211 135.88140869 46.52812195 C134.62108322 46.53802658 133.36075775 46.54793121 132.0622406 46.55813599 C130.6731405 46.55389823 129.28404135 46.5493404 127.89494324 46.54449463 C126.42612183 46.55019941 124.95730486 46.55716409 123.48849487 46.56529236 C119.50498006 46.5832273 115.52168549 46.58205478 111.53814244 46.57634997 C108.21058646 46.57325854 104.88307281 46.57935007 101.55552286 46.58538872 C93.70443443 46.59943348 85.85345481 46.59787313 78.00236511 46.58648682 C69.90715659 46.57500578 61.81227937 46.58908099 53.71711451 46.61588329 C46.76238901 46.6380462 39.80776747 46.64467635 32.85300916 46.63880688 C28.70120176 46.63543747 24.54960672 46.63785115 20.39782906 46.65505791 C16.49314355 46.67053448 12.58894848 46.66656403 8.6842823 46.64775276 C7.25323581 46.64406878 5.82215293 46.64716988 4.39113998 46.65763855 C-8.98353726 46.74799399 -8.98353726 46.74799399 -13.8631134 42.14044189 C-19.04190356 36.68544959 -18.46161037 30.74043163 -18.3631134 23.64044189 C-18.37858215 22.52540283 -18.3940509 21.41036377 -18.4099884 20.26153564 C-18.3798005 13.92962245 -18.16590664 9.91693714 -13.8631134 5.14044189 C-9.25829625 0.9848752 -6.12242755 0.01708304 0 0 Z M3.3868866 11.76544189 C-0.0457151 15.38874369 -1.72583369 19.20814712 -1.96076965 24.22637939 C-1.57569604 29.12902393 0.01722371 32.41417789 3.1368866 36.14044189 C7.25538647 39.55291322 11.89596126 40.29326476 17.1368866 40.14044189 C22.68282672 38.41301792 26.03947034 36.07682466 29.3868866 31.39044189 C30.55852362 28.27081554 30.55852362 28.27081554 30.1368866 21.14044189 C24.8568866 21.14044189 19.5768866 21.14044189 14.1368866 21.14044189 C14.1368866 23.12044189 14.1368866 25.10044189 14.1368866 27.14044189 C17.1068866 27.14044189 20.0768866 27.14044189 23.1368866 27.14044189 C20.36020992 30.50611059 18.96021317 32.01044296 14.5743866 32.70294189 C11.1368866 32.14044189 11.1368866 32.14044189 8.6993866 30.64044189 C6.49859757 27.11917946 6.33273998 24.18604547 7.1368866 20.14044189 C8.6993866 17.64044189 8.6993866 17.64044189 11.1368866 16.14044189 C14.6368866 15.70294189 14.6368866 15.70294189 18.1368866 16.14044189 C18.7968866 16.67669189 19.4568866 17.21294189 20.1368866 17.76544189 C20.7968866 18.21919189 21.4568866 18.67294189 22.1368866 19.14044189 C25.84983944 18.42529795 25.84983944 18.42529795 29.1368866 17.14044189 C27.05862837 13.09330744 25.32102139 11.00005736 21.1368866 9.14044189 C14.36508399 7.7205478 9.5000854 8.15309715 3.3868866 11.76544189 Z M34.1368866 9.14044189 C34.2180465 12.70385471 34.33086521 16.26559145 34.4493866 19.82794189 C34.47194519 20.83534424 34.49450378 21.84274658 34.51774597 22.88067627 C34.74762476 29.21279205 35.29667925 33.19504169 39.8243866 37.89044189 C43.73977775 40.00686954 47.79714084 40.74394774 52.1056366 39.63262939 C55.30446724 38.34496452 58.0518976 36.92042722 60.1368866 34.14044189 C61.1100547 31.22093759 61.3298412 29.08599238 61.45329285 26.03497314 C61.49518738 25.05206299 61.53708191 24.06915283 61.58024597 23.05645752 C61.61956238 22.03229736 61.65887878 21.00813721 61.6993866 19.95294189 C61.74257019 18.91718018 61.78575378 17.88141846 61.83024597 16.81427002 C61.93633026 14.25646 62.03838806 11.69855344 62.1368866 9.14044189 C59.4968866 9.14044189 56.8568866 9.14044189 54.1368866 9.14044189 C54.11706726 9.76612061 54.09724792 10.39179932 54.076828 11.03643799 C53.98174434 13.86320709 53.87199914 16.68922004 53.7618866 19.51544189 C53.71548035 20.99270752 53.71548035 20.99270752 53.6681366 22.49981689 C53.62946472 23.44083252 53.59079285 24.38184814 53.5509491 25.35137939 C53.5195282 26.22069092 53.4881073 27.09000244 53.45573425 27.98565674 C53.1368866 30.14044189 53.1368866 30.14044189 51.1368866 32.14044189 C48.1368866 32.39044189 48.1368866 32.39044189 45.1368866 32.14044189 C42.65631032 29.65986561 42.84669655 28.77851725 42.7228241 25.35137939 C42.68415222 24.41036377 42.64548035 23.46934814 42.6056366 22.49981689 C42.5746991 21.51497314 42.5437616 20.53012939 42.5118866 19.51544189 C42.47321472 18.52286377 42.43454285 17.53028564 42.3946991 16.50762939 C42.3002552 14.05208805 42.21468785 11.5965578 42.1368866 9.14044189 C39.4968866 9.14044189 36.8568866 9.14044189 34.1368866 9.14044189 Z M67.1368866 9.14044189 C67.1368866 19.04044189 67.1368866 28.94044189 67.1368866 39.14044189 C69.4468866 39.14044189 71.7568866 39.14044189 74.1368866 39.14044189 C74.1368866 29.24044189 74.1368866 19.34044189 74.1368866 9.14044189 C71.8268866 9.14044189 69.5168866 9.14044189 67.1368866 9.14044189 Z M80.1368866 9.14044189 C80.1368866 19.04044189 80.1368866 28.94044189 80.1368866 39.14044189 C92.84293251 39.98142659 92.84293251 39.98142659 104.1368866 35.14044189 C107.78936998 31.25231443 108.44498473 27.4942903 108.3478241 22.19903564 C108.01345161 18.93580781 106.97570853 16.83738074 105.1368866 14.14044189 C99.36364967 9.69023843 95.04108744 8.9980374 87.9493866 9.07794189 C85.3712616 9.09856689 82.7931366 9.11919189 80.1368866 9.14044189 Z M112.1368866 9.14044189 C112.1368866 19.04044189 112.1368866 28.94044189 112.1368866 39.14044189 C120.0568866 39.14044189 127.9768866 39.14044189 136.1368866 39.14044189 C136.1368866 37.16044189 136.1368866 35.18044189 136.1368866 33.14044189 C130.8568866 33.14044189 125.5768866 33.14044189 120.1368866 33.14044189 C120.1368866 31.16044189 120.1368866 29.18044189 120.1368866 27.14044189 C125.0868866 27.14044189 130.0368866 27.14044189 135.1368866 27.14044189 C134.8068866 25.16044189 134.4768866 23.18044189 134.1368866 21.14044189 C129.5168866 21.14044189 124.8968866 21.14044189 120.1368866 21.14044189 C120.1368866 19.16044189 120.1368866 17.18044189 120.1368866 15.14044189 C125.4168866 15.14044189 130.6968866 15.14044189 136.1368866 15.14044189 C136.1368866 13.16044189 136.1368866 11.18044189 136.1368866 9.14044189 C128.2168866 9.14044189 120.2968866 9.14044189 112.1368866 9.14044189 Z " fill="#F05425" transform="translate(378.8631134033203,129.85955810546875)"/>
<path d="M0 0 C7.074375 -0.061875 14.14875 -0.12375 21.4375 -0.1875 C24.76026001 -0.22846802 24.76026001 -0.22846802 28.15014648 -0.27026367 C29.93212338 -0.27903643 31.71410636 -0.28667849 33.49609375 -0.29296875 C34.40008911 -0.30831665 35.30408447 -0.32366455 36.23547363 -0.33947754 C45.01590038 -0.34304537 53.58229978 1.63217828 60 8 C64.42496022 13.74721165 64.88576595 19.95708046 64 27 C62.3194953 31.77617125 59.69251608 34.59152362 56 38 C55.34 38.66 54.68 39.32 54 40 C54.54269531 40.37511719 55.08539063 40.75023437 55.64453125 41.13671875 C61.11198512 45.04767224 64.55367979 48.25466178 66 55 C66.77834748 61.67337262 65.79487976 67.37638988 62 73 C53.55934826 81.24681632 44.30265685 82.16202156 33.0078125 82.09765625 C32.16855225 82.09664917 31.32929199 82.09564209 30.46459961 82.09460449 C27.35138569 82.08940127 24.23819137 82.07544014 21.125 82.0625 C14.15375 82.041875 7.1825 82.02125 0 82 C0 54.94 0 27.88 0 0 Z M21 17 C21 22.28 21 27.56 21 33 C31.98441156 33.63276355 31.98441156 33.63276355 42 30 C43.40457737 27.19084526 43.24895157 25.11189466 43 22 C41.22015595 18.8640843 40.47691793 18.15897264 37 17 C34.25917841 16.92943302 31.55153023 16.90663846 28.8125 16.9375 C26.234375 16.958125 23.65625 16.97875 21 17 Z M21 48 C21 53.61 21 59.22 21 65 C24.8053125 65.061875 24.8053125 65.061875 28.6875 65.125 C29.47729248 65.14320801 30.26708496 65.16141602 31.08081055 65.18017578 C36.20844836 65.22037221 40.00475642 64.79571922 43.875 61.3125 C45.53583755 57.89855615 44.91952707 55.61242777 44 52 C42.10466125 49.41544715 41.11173483 49.03724494 38 48 C36.66474283 47.92026524 35.32587917 47.89228662 33.98828125 47.90234375 C33.30548096 47.90484131 32.62268066 47.90733887 31.91918945 47.90991211 C31.05898193 47.91901611 30.19877441 47.92812012 29.3125 47.9375 C26.569375 47.958125 23.82625 47.97875 21 48 Z " fill="#6B6B6B" transform="translate(285,39)"/>
<path d="M0 0 C50.20338983 0 50.20338983 0 62.2578125 11.07421875 C72.18616877 21.57043304 73.48961476 32.1383357 73.26953125 45.99609375 C72.86988138 56.5937058 68.54581294 64.60977083 61 72 C42.68233505 85.7818622 23.05188015 82 0 82 C0 54.94 0 27.88 0 0 Z M21 18 C21 33.18 21 48.36 21 64 C35.24326074 63.88977387 35.24326074 63.88977387 46.75 57.75 C52.94601262 50.17709568 52.92117917 42.55335247 52 33 C50.39760336 27.03401476 47.06415073 23.37610049 42 20 C34.90620804 16.89646602 29.31334916 18 21 18 Z " fill="#6B6B6B" transform="translate(461,39)"/>
<path d="M0 0 C10.08332673 6.1185235 17.259207 14.19783788 20.8125 25.609375 C23.57303523 37.95510202 21.93901864 50.1493185 15.3046875 61.04296875 C8.84450278 70.73324583 0.1593321 76.01282788 -11 79 C-22.60676008 81.28138613 -34.04604571 79.46608871 -44 73 C-53.12306064 66.55212256 -58.09110688 58.53845687 -61.6640625 48.05078125 C-63.78529131 35.10141934 -61.72033496 23.13115694 -54.375 12.1875 C-41.89162836 -3.89238206 -18.41394594 -8.74762291 0 0 Z M-36.375 21.5 C-40.54566574 27.91640883 -41.76999976 34.31400241 -41 42 C-39.67625173 48.13927349 -37.55139866 52.6554831 -33 57 C-27.01816196 60.66234982 -20.89209733 60.82375665 -14 60 C-8.66218582 58.39086963 -4.96681734 55.79255109 -2 51 C0.91228189 43.69819178 1.40947671 35.02840338 -0.72265625 27.421875 C-3.12965232 22.31553515 -6.51786297 18.24106851 -11.625 15.6875 C-21.1306847 13.75115682 -29.44755476 14.20795238 -36.375 21.5 Z " fill="#6B6B6B" transform="translate(117,42)"/>
<path d="M0 0 C47.67567568 0 47.67567568 0 56 7 C61.63780918 13.20701107 64.51635506 19.30067417 64.25 27.890625 C63.43930453 34.73086801 61.01233232 40.20559518 56 45 C54.46354364 45.93047824 52.90157677 46.81976514 51.3203125 47.671875 C50.51094238 48.11112305 49.70157227 48.55037109 48.86767578 49.00292969 C48.25134277 49.33196289 47.63500977 49.66099609 47 50 C49.09830787 53.64861845 51.19795211 57.29646348 53.29882812 60.94360352 C54.01306173 62.18395249 54.7269323 63.42451059 55.44042969 64.6652832 C56.46714001 66.4505866 57.49516147 68.2351293 58.5234375 70.01953125 C59.14138184 71.09307861 59.75932617 72.16662598 60.39599609 73.27270508 C61.53949316 75.21699819 62.74880227 77.1232034 64 79 C64 79.99 64 80.98 64 82 C56.41 82 48.82 82 41 82 C39.04026748 78.39010106 37.08224547 74.779351 35.12841797 71.16625977 C34.46403136 69.93884188 33.79867986 68.71194574 33.13232422 67.4855957 C32.171581 65.71705269 31.21465694 63.94643667 30.2578125 62.17578125 C29.39373779 60.58117065 29.39373779 60.58117065 28.51220703 58.9543457 C27.17430323 56.34053008 26.03429671 53.74554728 25 51 C23.68 51 22.36 51 21 51 C21 61.23 21 71.46 21 82 C14.07 82 7.14 82 0 82 C0 54.94 0 27.88 0 0 Z M21 18 C21 23.94 21 29.88 21 36 C23.5575 36.04125 26.115 36.0825 28.75 36.125 C29.54889648 36.14320801 30.34779297 36.16141602 31.17089844 36.18017578 C36.40912498 36.22494467 36.40912498 36.22494467 41 34 C42.8487005 30.91883249 43.00181077 29.05160689 42.875 25.4375 C41.87173746 21.49611143 41.26925995 20.3622709 38 18 C35.06261579 17.51566396 32.21655924 17.62307035 29.25 17.75 C25.16625 17.87375 25.16625 17.87375 21 18 Z " fill="#6B6B6B" transform="translate(389,39)"/>
<path d="M0 0 C7.26 0 14.52 0 22 0 C26.49944879 11.24862198 26.49944879 11.24862198 27.81518555 15.234375 C28.11196701 16.12809814 28.40874847 17.02182129 28.71452332 17.94262695 C29.17101006 19.33227661 29.17101006 19.33227661 29.63671875 20.75 C29.96162796 21.7299292 30.28653717 22.7098584 30.62129211 23.71948242 C31.64626399 26.81203671 32.66716138 29.90591427 33.6875 33 C34.71910863 36.12246042 35.75160657 39.24461986 36.7858429 42.36621094 C37.42632571 44.29990723 38.06520382 46.23413594 38.70231628 48.16894531 C39.13330376 49.4717041 39.13330376 49.4717041 39.57299805 50.80078125 C39.825186 51.56559814 40.07737396 52.33041504 40.33720398 53.1184082 C40.97512736 55.05412324 40.97512736 55.05412324 42 57 C48.27 38.19 54.54 19.38 61 0 C68.26 0 75.52 0 83 0 C80.74990898 10.12540957 80.74990898 10.12540957 79.57055664 13.40112305 C79.30552841 14.14548615 79.04050018 14.88984924 78.7674408 15.6567688 C78.4845369 16.43390228 78.201633 17.21103577 77.91015625 18.01171875 C77.45915306 19.27071487 77.45915306 19.27071487 76.9990387 20.55514526 C76.02560462 23.26791244 75.04432275 25.97775887 74.0625 28.6875 C73.38751192 30.56164295 72.71287278 32.4359116 72.03857422 34.31030273 C70.35216732 38.99248801 68.65836352 43.67195263 66.96112061 48.35021973 C66.05113835 50.85901313 65.14275002 53.36837733 64.23486328 55.87792969 C62.93904645 59.45797464 61.63942317 63.03660714 60.3354187 66.61367798 C59.86317083 67.9091493 59.39158886 69.20486357 58.92068481 70.50082397 C58.27562255 72.27377126 57.62622402 74.04513911 56.9765625 75.81640625 C56.43636475 77.29282593 56.43636475 77.29282593 55.88525391 78.79907227 C55 81 55 81 54 82 C52.14630389 82.08737645 50.28932459 82.10698153 48.43359375 82.09765625 C47.30888672 82.09443359 46.18417969 82.09121094 45.02539062 82.08789062 C43.84138672 82.07951172 42.65738281 82.07113281 41.4375 82.0625 C40.24962891 82.05798828 39.06175781 82.05347656 37.83789062 82.04882812 C34.89187774 82.03699675 31.94596319 82.02051287 29 82 C22.1335925 63.51438956 15.46501026 44.96084626 8.875 26.375 C8.30073776 24.75827393 8.30073776 24.75827393 7.71487427 23.10888672 C6.61770763 20.01864433 5.52322848 16.9274645 4.4296875 13.8359375 C4.09785965 12.90171967 3.7660318 11.96750183 3.42414856 11.00497437 C3.1190184 10.14014435 2.81388824 9.27531433 2.49951172 8.38427734 C2.23290741 7.63093109 1.9663031 6.87758484 1.69161987 6.10140991 C1.03181725 4.09667316 0.51187711 2.04750844 0 0 Z " fill="#6B6B6B" transform="translate(139,39)"/>
<path d="M0 0 C16.83 0 33.66 0 51 0 C51 5.61 51 11.22 51 17 C41.1 17 31.2 17 21 17 C21 21.95 21 26.9 21 32 C29.58 32 38.16 32 47 32 C47 37.28 47 42.56 47 48 C38.42 48 29.84 48 21 48 C21 53.61 21 59.22 21 65 C30.9 65 40.8 65 51 65 C51 70.61 51 76.22 51 82 C34.17 82 17.34 82 0 82 C0 54.94 0 27.88 0 0 Z " fill="#6B6B6B" transform="translate(226,39)"/>
<path d="M0 0 C6.6 0 13.2 0 20 0 C20 21.45 20 42.9 20 65 C28.58 65 37.16 65 46 65 C46 70.61 46 76.22 46 82 C30.82 82 15.64 82 0 82 C0 54.94 0 27.88 0 0 Z " fill="#6B6B6B" transform="translate(7,39)"/>
<path d="M0 0 C4.62 0 9.24 0 14 0 C14.78246094 1.93746094 15.56492187 3.87492188 16.37109375 5.87109375 C17.12880469 7.74104094 17.88653331 9.61098101 18.64477539 11.48071289 C19.17238314 12.78307694 19.69907915 14.08581073 20.22485352 15.38891602 C20.97954912 17.25893934 21.73776804 19.12753954 22.49609375 20.99609375 C22.95169678 22.12200928 23.4072998 23.2479248 23.87670898 24.40795898 C24.76079613 26.88334172 24.76079613 26.88334172 26 28 C29.63 18.76 33.26 9.52 37 0 C41.95 0 46.9 0 52 0 C52 14.85 52 29.7 52 45 C47.71 45 43.42 45 39 45 C39 38.07 39 31.14 39 24 C36.36 30.93 33.72 37.86 31 45 C27.37 45 23.74 45 20 45 C16.535 35.595 16.535 35.595 13 26 C12.67 32.27 12.34 38.54 12 45 C8.04 45 4.08 45 0 45 C0 30.15 0 15.3 0 0 Z " fill="#6B6B6B" transform="translate(7,131)"/>
<path d="M0 0 C6.93 0 13.86 0 21 0 C21 27.06 21 54.12 21 82 C14.07 82 7.14 82 0 82 C0 54.94 0 27.88 0 0 Z " fill="#6B6B6B" transform="translate(358,39)"/>
<path d="M0 0 C4.29 0 8.58 0 13 0 C16.42586997 3.80894453 18.41961027 6.54498634 20.75 10.9375 C21.35070312 11.97841797 21.95140625 13.01933594 22.5703125 14.09179688 C23.67166041 16.00420529 24.75302686 17.9283582 25.80761719 19.86694336 C26.82701485 21.9177454 26.82701485 21.9177454 28 23 C28.33 15.41 28.66 7.82 29 0 C33.29 0 37.58 0 42 0 C42 14.85 42 29.7 42 45 C29 45 29 45 26.05541992 42.796875 C25.45318604 41.79140625 24.85095215 40.7859375 24.23046875 39.75 C23.55048828 38.6671875 22.87050781 37.584375 22.16992188 36.46875 C21.18862305 34.75171875 21.18862305 34.75171875 20.1875 33 C19.48021076 31.84111509 18.7686508 30.68482531 18.05273438 29.53125 C16.32644795 26.71282318 14.65739359 23.85948266 13 21 C12.67 28.92 12.34 36.84 12 45 C8.04 45 4.08 45 0 45 C0 30.15 0 15.3 0 0 Z " fill="#6B6B6B" transform="translate(302,131)"/>
<path d="M0 0 C5.11448428 3.67900635 9.78819508 7.54096213 11 14 C11.77260121 21.63799428 11.93607032 28.76855211 7 35 C0.8895031 41.19502946 -2.88208552 43.26453938 -11.625 43.375 C-22.83106696 43.40031823 -22.83106696 43.40031823 -27.45703125 39.6953125 C-33.4789357 33.07884027 -36.34671963 27.29469469 -36.21484375 18.37109375 C-35.61087605 11.70548658 -32.71120705 6.71120705 -28 2 C-19.49538067 -3.98190079 -9.1999363 -5.28144491 0 0 Z M-21 11 C-23.98370829 15.58176222 -23.50749734 20.73764296 -23 26 C-21.75367942 29.05348543 -20.84499999 30.36625001 -18.25 32.3125 C-13.5112108 33.76046337 -10.10313211 33.56197296 -5.6875 31.3125 C-1.76698146 27.93903056 -1.1487759 25.63653494 -0.6875 20.5625 C-1.03635947 16.58550208 -1.80760159 14.32639759 -4 11 C-6.72632114 8.78946935 -8.45789117 8.06920538 -11.9375 7.625 C-15.5722166 8.07006734 -17.91405598 9.03621744 -21 11 Z " fill="#6B6B6B" transform="translate(286,133)"/>
<path d="M0 0 C4.95 0 9.9 0 15 0 C17.11832455 5.92636915 19.23623496 11.85288607 21.35375977 17.77954102 C22.07434864 19.79618341 22.79505116 21.81278519 23.51586914 23.8293457 C24.55124228 26.72596774 25.58620817 29.622735 26.62109375 32.51953125 C26.94403915 33.42274612 27.26698456 34.325961 27.59971619 35.25654602 C27.89995193 36.09719101 28.20018768 36.937836 28.50952148 37.80395508 C28.77377426 38.54341873 29.03802704 39.28288239 29.31028748 40.04475403 C29.89082469 41.69050208 30.44813859 43.34441578 31 45 C26.71 45 22.42 45 18 45 C16 41 16 41 16 38 C10.39 38 4.78 38 -1 38 C-1.66 40.31 -2.32 42.62 -3 45 C-7.29 45 -11.58 45 -16 45 C-10.83048365 29.93689682 -5.58803333 14.91340084 0 0 Z M7 14 C6.32968281 15.9570868 5.66385317 17.91571113 5 19.875 C4.62875 20.96554688 4.2575 22.05609375 3.875 23.1796875 C2.901228 25.82620854 2.901228 25.82620854 3 28 C5.97 28 8.94 28 12 28 C10.68 23.38 9.36 18.76 8 14 C7.67 14 7.34 14 7 14 Z " fill="#6B6B6B" transform="translate(161,131)"/>
<path d="M0 0 C3.96 0 7.92 0 12 0 C12.01981934 0.85754883 12.03963867 1.71509766 12.06005859 2.59863281 C12.13829521 5.78947642 12.22499343 8.9799474 12.31738281 12.17041016 C12.35559338 13.54955243 12.39046002 14.92879167 12.421875 16.30810547 C12.46769624 18.29416967 12.52666263 20.27991679 12.5859375 22.265625 C12.6173584 23.45961914 12.6487793 24.65361328 12.68115234 25.88378906 C12.98415833 28.84517374 13.26675082 30.59901782 15 33 C18.36760187 34.1716367 18.36760187 34.1716367 22 34 C25.07564205 31.79997581 25.90658006 30.54898839 26.54589844 26.79199219 C26.5668457 25.55610352 26.58779297 24.32021484 26.609375 23.046875 C26.62591125 22.38665344 26.64244751 21.72643188 26.65948486 21.04620361 C26.70788451 18.94737374 26.72931519 16.84926778 26.75 14.75 C26.77816683 13.3228804 26.80809528 11.89579441 26.83984375 10.46875 C26.91363763 6.97932391 26.96326279 3.49003528 27 0 C30.96 0 34.92 0 39 0 C39.09961729 4.41074704 39.17181669 8.82088095 39.21972656 13.23242188 C39.23971919 14.7299339 39.26692299 16.22736908 39.30175781 17.72460938 C39.65343607 33.23982651 39.65343607 33.23982651 35 40 C29.96083256 44.67922691 26.45486861 45.22798485 19.75 45.3125 C18.99847656 45.34150391 18.24695313 45.37050781 17.47265625 45.40039062 C12.16351712 45.46061646 9.20543074 44.51611954 5 41 C0.82523113 35.47125204 -0.14872835 31.48008898 -0.09765625 24.70703125 C-0.0962413 24.00100266 -0.09482635 23.29497406 -0.09336853 22.56755066 C-0.08777764 20.31582374 -0.07522688 18.06419679 -0.0625 15.8125 C-0.05748382 14.28450665 -0.05292112 12.75651173 -0.04882812 11.22851562 C-0.0378112 7.48563865 -0.02055287 3.74283627 0 0 Z " fill="#6B6B6B" transform="translate(65,131)"/>
<path d="M0 0 C11.88 0 23.76 0 36 0 C36 3.3 36 6.6 36 10 C32.04 10 28.08 10 24 10 C24 21.55 24 33.1 24 45 C20.04 45 16.08 45 12 45 C12 33.45 12 21.9 12 10 C8.04 10 4.08 10 0 10 C0 6.7 0 3.4 0 0 Z " fill="#6B6B6B" transform="translate(193,131)"/>
<path d="M0 0 C11.88 0 23.76 0 36 0 C36 3.3 36 6.6 36 10 C32.04 10 28.08 10 24 10 C24 21.55 24 33.1 24 45 C20.04 45 16.08 45 12 45 C12 33.45 12 21.9 12 10 C8.04 10 4.08 10 0 10 C0 6.7 0 3.4 0 0 Z " fill="#6B6B6B" transform="translate(108,131)"/>
<path d="M0 0 C3.96 0 7.92 0 12 0 C12 14.85 12 29.7 12 45 C8.04 45 4.08 45 0 45 C0 30.15 0 15.3 0 0 Z " fill="#6B6B6B" transform="translate(233,131)"/>
<path d="M0 0 C8.11111111 0 8.11111111 0 12 3 C14.34168764 6.51253146 14.49623677 7.86469356 14 12 C11.84909549 15.33761045 10.79587201 16.73470933 7 18 C4.69 18 2.38 18 0 18 C0 12.06 0 6.12 0 0 Z " fill="#F05425" transform="translate(466,145)"/>
</svg>
